[Header]
FileType HTR
DataType HTRS
FileVersion 1
NumSegments 64
NumFrames 4
DataFrameRate 30
EulerRotationOrder ZYX
CalibrationUnits mm
RotationUnits Degrees
GlobalAxisofGravity Y
BoneLengthAxis Y
ScaleFactor 1.0
[SegmentNames&Hierarchy]
Hips	GLOBAL
Spine	Hips
Spine1	Spine
Spine2	Spine1
Neck	Spine2
Head	Neck
LeftEye	Head
RightEye	Head
LeftShoulder	Spine2
LeftArm	LeftShoulder
LeftForeArm	LeftArm
LeftHand	LeftForeArm
LeftHandThumb1	LeftHand
LeftHandThumb2	LeftHandThumb1
LeftHandThumb3	LeftHandThumb2
LeftHandThumb4	LeftHandThumb3
LeftHandIndex1	LeftHand
LeftHandIndex2	LeftHandIndex1
LeftHandIndex3	LeftHandIndex2
LeftHandIndex4	LeftHandIndex3
LeftHandMiddle1	LeftHand
LeftHandMiddle2	LeftHandMiddle1
LeftHandMiddle3	LeftHandMiddle2
LeftHandMiddle4	LeftHandMiddle3
LeftHandRing1	LeftHand
LeftHandRing2	LeftHandRing1
LeftHandRing3	LeftHandRing2
LeftHandRing4	LeftHandRing3
LeftHandPinky1	LeftHand
LeftHandPinky2	LeftHandPinky1
LeftHandPinky3	LeftHandPinky2
LeftHandPinky4	LeftHandPinky3
RightShoulder	Spine2
RightArm	RightShoulder
RightForeArm	RightArm
RightHand	RightForeArm
RightHandPinky1	RightHand
RightHandPinky2	RightHandPinky1
RightHandPinky3	RightHandPinky2
RightHandPinky4	RightHandPinky3
RightHandRing1	RightHand
RightHandRing2	RightHandRing1
RightHandRing3	RightHandRing2
RightHandRing4	RightHandRing3
RightHandMiddle1	RightHand
RightHandMiddle2	RightHandMiddle1
RightHandMiddle3	RightHandMiddle2
RightHandMiddle4	RightHandMiddle3
RightHandIndex1	RightHand
RightHandIndex2	RightHandIndex1
RightHandIndex3	RightHandIndex2
RightHandIndex4	RightHandIndex3
RightHandThumb1	RightHand
RightHandThumb2	RightHandThumb1
RightHandThumb3	RightHandThumb2
RightHandThumb4	RightHandThumb3
LeftUpLeg	Hips
LeftLeg	LeftUpLeg
LeftFoot	LeftLeg
LeftToeBase	LeftFoot
RightUpLeg	Hips
RightLeg	RightUpLeg
RightFoot	RightLeg
RightToeBase	RightFoot
[BasePosition]
Hips	0	0	0	0	0	0	1
Spine	0	0	0	0	0	0	1
Spine1	0	0	0	0	0	0	1
Spine2	0	0	0	0	0	0	1
Neck	0	0	0	0	0	0	1
Head	0	0	0	0	0	0	1
LeftEye	0	0	0	0	0	0	1
RightEye	0	0	0	0	0	0	1
LeftShoulder	0	0	0	0	0	0	1
LeftArm	0	0	0	0	0	0	1
LeftForeArm	0	0	0	0	0	0	1
LeftHand	0	0	0	0	0	0	1
LeftHandThumb1	0	0	0	0	0	0	1
LeftHandThumb2	0	0	0	0	0	0	1
LeftHandThumb3	0	0	0	0	0	0	1
LeftHandThumb4	0	0	0	0	0	0	1
LeftHandIndex1	0	0	0	0	0	0	1
LeftHandIndex2	0	0	0	0	0	0	1
LeftHandIndex3	0	0	0	0	0	0	1
LeftHandIndex4	0	0	0	0	0	0	1
LeftHandMiddle1	0	0	0	0	0	0	1
LeftHandMiddle2	0	0	0	0	0	0	1
LeftHandMiddle3	0	0	0	0	0	0	1
LeftHandMiddle4	0	0	0	0	0	0	1
LeftHandRing1	0	0	0	0	0	0	1
LeftHandRing2	0	0	0	0	0	0	1
LeftHandRing3	0	0	0	0	0	0	1
LeftHandRing4	0	0	0	0	0	0	1
LeftHandPinky1	0	0	0	0	0	0	1
LeftHandPinky2	0	0	0	0	0	0	1
LeftHandPinky3	0	0	0	0	0	0	1
LeftHandPinky4	0	0	0	0	0	0	1
RightShoulder	0	0	0	0	0	0	1
RightArm	0	0	0	0	0	0	1
RightForeArm	0	0	0	0	0	0	1
RightHand	0	0	0	0	0	0	1
RightHandPinky1	0	0	0	0	0	0	1
RightHandPinky2	0	0	0	0	0	0	1
RightHandPinky3	0	0	0	0	0	0	1
RightHandPinky4	0	0	0	0	0	0	1
RightHandRing1	0	0	0	0	0	0	1
RightHandRing2	0	0	0	0	0	0	1
RightHandRing3	0	0	0	0	0	0	1
RightHandRing4	0	0	0	0	0	0	1
RightHandMiddle1	0	0	0	0	0	0	1
RightHandMiddle2	0	0	0	0	0	0	1
RightHandMiddle3	0	0	0	0	0	0	1
RightHandMiddle4	0	0	0	0	0	0	1
RightHandIndex1	0	0	0	0	0	0	1
RightHandIndex2	0	0	0	0	0	0	1
RightHandIndex3	0	0	0	0	0	0	1
RightHandIndex4	0	0	0	0	0	0	1
RightHandThumb1	0	0	0	0	0	0	1
RightHandThumb2	0	0	0	0	0	0	1
RightHandThumb3	0	0	0	0	0	0	1
RightHandThumb4	0	0	0	0	0	0	1
LeftUpLeg	0	0	0	0	0	0	1
LeftLeg	0	0	0	0	0	0	1
LeftFoot	0	0	0	0	0	0	1
LeftToeBase	0	0	0	0	0	0	1
RightUpLeg	0	0	0	0	0	0	1
RightLeg	0	0	0	0	0	0	1
RightFoot	0	0	0	0	0	0	1
RightToeBase	0	0	0	0	0	0	1
[Hips]
93	25.81344604	1018.86908	-0.9836099148	10.74915409	-1.902598858	3.958602667	1.0
94	53.2002182	999.5404053	12.09138012	8.396504402	-4.883581161	4.600375175	1.0
95	75.74032593	976.3851929	17.03130913	6.426077366	-8.894682884	6.556486607	1.0
96	92.50400543	955.6637573	11.12734795	5.070856094	-13.48159409	8.356271744	1.0
[Spine]
93	0	101.8159943	1.315000057	6.807972908	0.2841279805	3.862943172	1.0
94	0	101.8159943	1.315000057	6.534750462	0.9348258376	3.577156305	1.0
95	0	101.8159943	1.315000057	6.879444122	1.355052352	1.15118897	1.0
96	0	101.8159943	1.315000057	8.270806313	1.278387427	-1.892742991	1.0
[Spine1]
93	0	100.8349991	-10.00800037	1.348888516	0.2136836052	1.889843583	1.0
94	0	100.8349991	-10.00800037	1.405787945	0.3559541106	2.108209372	1.0
95	0	100.8349991	-10.00800037	1.646563649	0.424831599	1.670054317	1.0
96	0	100.8349991	-10.00800037	2.014615297	0.3905946314	0.9300082922	1.0
[Spine2]
93	0	91	-13.73399925	1.346811771	0.267753005	1.883688927	1.0
94	0	91	-13.73399925	1.400150061	0.4159459472	2.102074146	1.0
95	0	91	-13.73399925	1.637175918	0.4757002592	1.666642666	1.0
96	0	91	-13.73399925	2.005421638	0.4268753231	0.9298161864	1.0
[Neck]
93	0	166.7169952	-25.16200066	-1.918401957	1.841508746	-6.899692535	1.0
94	0	166.7169952	-25.16200066	1.139633298	2.414396048	-8.463197708	1.0
95	0	166.7169952	-25.16200066	3.382184505	2.935403109	-8.021901131	1.0
96	0	166.7169952	-25.16200066	3.823286533	3.318668127	-6.503642559	1.0
[Head]
93	0	96.17900085	16.84999847	-21.61376953	4.594325066	-5.472895622	1.0
94	0	96.17900085	16.84999847	-21.23652077	5.113571167	-5.093764305	1.0
95	0	96.17900085	16.84999847	-23.25615883	6.506410599	-5.184390545	1.0
96	0	96.17900085	16.84999847	-27.04976654	8.913310051	-5.334736824	1.0
[LeftEye]
93	30.6760006	64.09500122	92.83599854	0	0	0	1.0
94	30.6760006	64.09500122	92.83599854	0	0	0	1.0
95	30.6760006	64.09500122	92.83599854	0	0	0	1.0
96	30.6760006	64.09500122	92.83599854	0	0	0	1.0
[RightEye]
93	-30.6760006	64.09500122	92.83499908	0	0	0	1.0
94	-30.6760006	64.09500122	92.83499908	0	0	0	1.0
95	-30.6760006	64.09500122	92.83499908	0	0	0	1.0
96	-30.6760006	64.09500122	92.83499908	0	0	0	1.0
[LeftShoulder]
93	45.70400238	109.4599991	-26.28000069	4.940324783	-27.43646622	-9.87377739	1.0
94	45.70400238	109.4599991	-26.28000069	5.266309261	-25.78518295	-11.65557861	1.0
95	45.70400238	109.4599991	-26.28000069	5.337655544	-24.96728706	-12.31070614	1.0
96	45.70400238	109.4599991	-26.28000069	5.320687771	-24.89105034	-12.31147766	1.0
[LeftArm]
93	105.923996	-5.24600029	-22.32099915	-5.28477478	-36.43144989	-44.82616425	1.0
94	105.923996	-5.24600029	-22.32099915	0.6380360126	-31.25932312	-52.16747284	1.0
95	105.923996	-5.24600029	-22.32099915	5.440174103	-26.21888351	-52.74584579	1.0
96	105.923996	-5.24600029	-22.32099915	8.565805435	-22.94054413	-48.2077446	1.0
[LeftForeArm]
93	278.414978	-0.0009999999311	0	-5.170962686e-05	-85.53886414	-6.096013385e-05	1.0
94	278.414978	-0.0009999999311	0	8.959770639e-06	-80.00539398	-0.0001862269855	1.0
95	278.414978	-0.0009999999311	0	7.784634022e-07	-75.72506714	-0.0002279432665	1.0
96	278.414978	-0.0009999999311	0	1.663367402e-05	-75.61019897	-0.0002357398189	1.0
[LeftHand]
93	283.2879944	0	0	66.7026825	-35.91193008	-8.416740417	1.0
94	283.2879944	0	0	64.78616333	-36.05208588	-3.642502308	1.0
95	283.2879944	0	0	58.71230316	-26.24395943	1.960291862	1.0
96	283.2879944	0	0	52.45652008	-9.011138916	8.55621624	1.0
[LeftHandThumb1]
93	24.6609993	-15.75	26.8239994	-1.441463709	-8.319261551	8.653962135	1.0
94	24.6609993	-15.75	26.8239994	-1.441465497	-8.319262505	8.653966904	1.0
95	24.6609993	-15.75	26.8239994	-1.441469789	-8.319266319	8.653966904	1.0
96	24.6609993	-15.75	26.8239994	-1.441468358	-8.319270134	8.653961182	1.0
[LeftHandThumb2]
93	32.29800034	-18.64699936	18.64699936	6.693870544	35.79314804	-1.551223278	1.0
94	32.29800034	-18.64699936	18.64699936	6.693872929	35.79314804	-1.551223993	1.0
95	32.29800034	-18.64699936	18.64699936	6.693883896	35.79314041	-1.551230431	1.0
96	32.29800034	-18.64699936	18.64699936	6.693877697	35.79314041	-1.551232696	1.0
[LeftHandThumb3]
93	26.52600098	-15.31499958	15.31499958	-0.8579775691	28.98579216	24.39994621	1.0
94	26.52600098	-15.31499958	15.31499958	-0.8579825163	28.98579025	24.39993477	1.0
95	26.52600098	-15.31499958	15.31499958	-0.8579841852	28.98578072	24.3999424	1.0
96	26.52600098	-15.31499958	15.31499958	-0.8579856157	28.98576927	24.39993858	1.0
[LeftHandThumb4]
93	19.54599953	-11.28499985	11.28499985	0	0	0	1.0
94	19.54599953	-11.28499985	11.28499985	0	0	0	1.0
95	19.54599953	-11.28499985	11.28499985	0	0	0	1.0
96	19.54599953	-11.28499985	11.28499985	0	0	0	1.0
[LeftHandIndex1]
93	91.09299469	-5.170999527	22.60099792	2.074717522	6.374516964	-51.86821365	1.0
94	91.09299469	-5.170999527	22.60099792	2.074715614	6.37451601	-51.86821747	1.0
95	91.09299469	-5.170999527	22.60099792	2.07471633	6.374520779	-51.86822891	1.0
96	91.09299469	-5.170999527	22.60099792	2.074713469	6.374513626	-51.86821747	1.0
[LeftHandIndex2]
93	36.76399994	0	0	-5.084240437	5.7780509	-82.67963409	1.0
94	36.76399994	0	0	-5.084236622	5.778055191	-82.67964935	1.0
95	36.76399994	0	0	-5.084229469	5.778059483	-82.67964172	1.0
96	36.76399994	0	0	-5.084246159	5.778066158	-82.67964172	1.0
[LeftHandIndex3]
93	28.83100128	0	0	-6.449678898	5.791762829	-96.16449738	1.0
94	28.83100128	0	0	-6.449673653	5.791760921	-96.16449738	1.0
95	28.83100128	0	0	-6.449676514	5.791760445	-96.16448975	1.0
96	28.83100128	0	0	-6.449673653	5.791764259	-96.16449738	1.0
[LeftHandIndex4]
93	23.92700005	0	0	0	0	0	1.0
94	23.92700005	0	0	0	0	0	1.0
95	23.92700005	0	0	0	0	0	1.0
96	23.92700005	0	0	0	0	0	1.0
[LeftHandMiddle1]
93	95.33399963	0	0	-6.494761944	5.273266792	-74.30395508	1.0
94	95.33399963	0	0	-6.494760513	5.273269653	-74.30396271	1.0
95	95.33399963	0	0	-6.494753361	5.273264408	-74.30395508	1.0
96	95.33399963	0	0	-6.494755268	5.273261547	-74.30393219	1.0
[LeftHandMiddle2]
93	36.98199844	0	0	-7.583500385	5.554393768	-107.5965881	1.0
94	36.98199844	0	0	-7.583494663	5.554396629	-107.5965881	1.0
95	36.98199844	0	0	-7.583490849	5.554388523	-107.5966034	1.0
96	36.98199844	0	0	-7.583490849	5.554381847	-107.5966034	1.0
[LeftHandMiddle3]
93	29.50900078	0	0	-1.617068172	4.031616688	-43.69761658	1.0
94	29.50900078	0	0	-1.617070198	4.031616211	-43.69761658	1.0
95	29.50900078	0	0	-1.617081404	4.031626701	-43.69761276	1.0
96	29.50900078	0	0	-1.617085934	4.031633377	-43.69759369	1.0
[LeftHandMiddle4]
93	28.3390007	0	0	0	0	0	1.0
94	28.3390007	0	0	0	0	0	1.0
95	28.3390007	0	0	0	0	0	1.0
96	28.3390007	0	0	0	0	0	1.0
[LeftHandRing1]
93	91.04499817	-0.4390000105	-18.65100098	-8.449708939	1.972096205	-92.66125488	1.0
94	91.04499817	-0.4390000105	-18.65100098	-8.449703217	1.972095132	-92.66125488	1.0
95	91.04499817	-0.4390000105	-18.65100098	-8.449700356	1.972094774	-92.66124725	1.0
96	91.04499817	-0.4390000105	-18.65100098	-8.449707985	1.972096562	-92.66124725	1.0
[LeftHandRing2]
93	31.54000092	0	0	-5.443836212	5.812757015	-86.23971558	1.0
94	31.54000092	0	0	-5.443836212	5.812754154	-86.23971558	1.0
95	31.54000092	0	0	-5.443835735	5.812756538	-86.23973083	1.0
96	31.54000092	0	0	-5.443843365	5.812763691	-86.23973846	1.0
[LeftHandRing3]
93	29.37700081	0	0	-1.453043818	3.853059292	-41.31212616	1.0
94	29.37700081	0	0	-1.453044534	3.853060007	-41.31212616	1.0
95	29.37700081	0	0	-1.453042626	3.853066206	-41.31213379	1.0
96	29.37700081	0	0	-1.453042269	3.853067875	-41.31211853	1.0
[LeftHandRing4]
93	26.47500038	0	0	0	0	0	1.0
94	26.47500038	0	0	0	0	0	1.0
95	26.47500038	0	0	0	0	0	1.0
96	26.47500038	0	0	0	0	0	1.0
[LeftHandPinky1]
93	80.77799988	-4.887000084	-38.06099701	-16.68238831	2.778093338	-98.34422302	1.0
94	80.77799988	-4.887000084	-38.06099701	-16.68238258	2.778096914	-98.34422302	1.0
95	80.77799988	-4.887000084	-38.06099701	-16.68237686	2.778103352	-98.34423828	1.0
96	80.77799988	-4.887000084	-38.06099701	-16.68238068	2.778095007	-98.34423828	1.0
[LeftHandPinky2]
93	36	0	0	-2.200027704	4.562775135	-51.46560287	1.0
94	36	0	0	-2.200027943	4.562767982	-51.46560287	1.0
95	36	0	0	-2.200021267	4.562771797	-51.46560287	1.0
96	36	0	0	-2.200029135	4.562787056	-51.4656105	1.0
[LeftHandPinky3]
93	21.14200211	0	0	-2.346138	4.675043106	-53.27988434	1.0
94	21.14200211	0	0	-2.346133709	4.675046921	-53.27988434	1.0
95	21.14200211	0	0	-2.346134663	4.675048828	-53.27987289	1.0
96	21.14200211	0	0	-2.346142292	4.675044537	-53.27986908	1.0
[LeftHandPinky4]
93	19.75699997	0	0	0	0	0	1.0
94	19.75699997	0	0	0	0	0	1.0
95	19.75699997	0	0	0	0	0	1.0
96	19.75699997	0	0	0	0	0	1.0
[RightShoulder]
93	-45.70000076	109.4620056	-26.28000069	3.972991228	26.07493782	5.907752991	1.0
94	-45.70000076	109.4620056	-26.28000069	4.233354568	25.36402702	6.931604862	1.0
95	-45.70000076	109.4620056	-26.28000069	4.138018131	25.31910706	6.540252209	1.0
96	-45.70000076	109.4620056	-26.28000069	3.636775494	26.24393654	4.568109512	1.0
[RightArm]
93	-105.9280014	-5.248000145	-22.32099915	7.847458839	49.99423599	50.07408524	1.0
94	-105.9280014	-5.248000145	-22.32099915	17.19167519	46.25741959	61.03272629	1.0
95	-105.9280014	-5.248000145	-22.32099915	24.69155502	45.32362366	65.35312653	1.0
96	-105.9280014	-5.248000145	-22.32099915	32.76326752	50.19124603	65.13098907	1.0
[RightForeArm]
93	-278.414978	0	0	-0.0001983110997	92.78320313	-0.0001982684043	1.0
94	-278.414978	0	0	-0.0002190870582	84.37966919	-0.0002128028864	1.0
95	-278.414978	0	0	1.132262878e-05	74.95109558	7.836087548e-07	1.0
96	-278.414978	0	0	-2.720528073e-06	66.00566864	-1.584389247e-05	1.0
[RightHand]
93	-283.2879944	0	0.0009999999311	1.673685431	2.411226273	-33.82159042	1.0
94	-283.2879944	0	0.0009999999311	5.657207489	3.001469374	-20.05363274	1.0
95	-283.2879944	0	0.0009999999311	8.873295784	0.5598281622	-8.342098236	1.0
96	-283.2879944	0	0.0009999999311	7.032769203	-5.283086777	0.4365536571	1.0
[RightHandPinky1]
93	-80.76699829	-4.885000229	-38.06000137	-15.18223381	-1.629501581	97.58633423	1.0
94	-80.76699829	-4.885000229	-38.06000137	-15.18223763	-1.629499197	97.58633423	1.0
95	-80.76699829	-4.885000229	-38.06000137	-15.18223572	-1.629495025	97.5863266	1.0
96	-80.76699829	-4.885000229	-38.06000137	-15.18223667	-1.629497051	97.5863266	1.0
[RightHandPinky2]
93	-36	0	0.0009999999311	-1.749826431	-3.626892328	51.51878357	1.0
94	-36	0	0.0009999999311	-1.749818087	-3.626890659	51.51878357	1.0
95	-36	0	0.0009999999311	-1.749821186	-3.6268785	51.51877594	1.0
96	-36	0	0.0009999999311	-1.749816298	-3.626890182	51.5187912	1.0
[RightHandPinky3]
93	-21.14200211	0	0	-1.867236018	-3.7170825	53.33226395	1.0
94	-21.14200211	0	0	-1.867234111	-3.717083931	53.33227539	1.0
95	-21.14200211	0	0	-1.867235899	-3.717084646	53.33227158	1.0
96	-21.14200211	0	0	-1.867232203	-3.717076778	53.33226013	1.0
[RightHandPinky4]
93	-19.75699997	0	0	0	0	0	1.0
94	-19.75699997	0	0	0	0	0	1.0
95	-19.75699997	0	0	0	0	0	1.0
96	-19.75699997	0	0	0	0	0	1.0
[RightHandRing1]
93	-91.03599548	-0.4390000105	-18.65100098	-7.065036297	-0.7974082232	91.91007996	1.0
94	-91.03599548	-0.4390000105	-18.65100098	-7.065041542	-0.7974070311	91.91007996	1.0
95	-91.03599548	-0.4390000105	-18.65100098	-7.065054417	-0.7974020839	91.91008759	1.0
96	-91.03599548	-0.4390000105	-18.65100098	-7.065045357	-0.7974070311	91.91009521	1.0
[RightHandRing2]
93	-31.54000092	0	0	-4.32773447	-4.620632172	86.24688721	1.0
94	-31.54000092	0	0	-4.327737808	-4.620630741	86.24687195	1.0
95	-31.54000092	0	0	-4.32775259	-4.620635986	86.24687195	1.0
96	-31.54000092	0	0	-4.327754974	-4.620618343	86.24688721	1.0
[RightHandRing3]
93	-29.37700081	0	0	-1.156980872	-3.063925266	41.36634827	1.0
94	-29.37700081	0	0	-1.156984806	-3.063928366	41.36634064	1.0
95	-29.37700081	0	0	-1.156973839	-3.063930511	41.36633301	1.0
96	-29.37700081	0	0	-1.156968951	-3.063935757	41.36633682	1.0
[RightHandRing4]
93	-26.47500038	0	0	0	0	0	1.0
94	-26.47500038	0	0	0	0	0	1.0
95	-26.47500038	0	0	0	0	0	1.0
96	-26.47500038	0	0	0	0	0	1.0
[RightHandMiddle1]
93	-95.32500458	0	0	-5.490192413	-4.098504543	73.57289886	1.0
94	-95.32500458	0	0	-5.490193844	-4.098499298	73.57289886	1.0
95	-95.32500458	0	0	-5.490190506	-4.098496437	73.57289886	1.0
96	-95.32500458	0	0	-5.490188122	-4.098509312	73.57292175	1.0
[RightHandMiddle2]
93	-36.98199844	0	0	-6.026569366	-4.415497303	107.5651321	1.0
94	-36.98199844	0	0	-6.026576996	-4.415498734	107.5651321	1.0
95	-36.98199844	0	0	-6.026590347	-4.415492058	107.5651169	1.0
96	-36.98199844	0	0	-6.026574612	-4.415498257	107.5651245	1.0
[RightHandMiddle3]
93	-29.50900078	0	0	-1.287464738	-3.207858086	43.75225067	1.0
94	-29.50900078	0	0	-1.287458301	-3.207859039	43.75225449	1.0
95	-29.50900078	0	0	-1.287461638	-3.207856417	43.75225449	1.0
96	-29.50900078	0	0	-1.287467241	-3.207849264	43.7522583	1.0
[RightHandMiddle4]
93	-28.3390007	0	0.0009999999311	0	0	0	1.0
94	-28.3390007	0	0.0009999999311	0	0	0	1.0
95	-28.3390007	0	0.0009999999311	0	0	0	1.0
96	-28.3390007	0	0.0009999999311	0	0	0	1.0
[RightHandIndex1]
93	-91.08300018	-5.167999744	22.60099792	2.643078804	-5.36072588	51.18568039	1.0
94	-91.08300018	-5.167999744	22.60099792	2.64307189	-5.360721111	51.18567657	1.0
95	-91.08300018	-5.167999744	22.60099792	2.643063307	-5.360717773	51.18568039	1.0
96	-91.08300018	-5.167999744	22.60099792	2.643065691	-5.360728741	51.18569183	1.0
[RightHandIndex2]
93	-36.76399994	0	0	-4.042248726	-4.593078613	82.6934433	1.0
94	-36.76399994	0	0	-4.042251587	-4.593083382	82.6934433	1.0
95	-36.76399994	0	0	-4.042250156	-4.593089104	82.69343567	1.0
96	-36.76399994	0	0	-4.042240143	-4.593079567	82.6934433	1.0
[RightHandIndex3]
93	-28.83100128	0	0	-5.126289368	-4.603963375	96.15284729	1.0
94	-28.83100128	0	0	-5.126288414	-4.603965759	96.15283203	1.0
95	-28.83100128	0	0	-5.126282215	-4.603964329	96.15281677	1.0
96	-28.83100128	0	0	-5.126284599	-4.6039505	96.15284729	1.0
[RightHandIndex4]
93	-23.92700005	0	0	0	0	0	1.0
94	-23.92700005	0	0	0	0	0	1.0
95	-23.92700005	0	0	0	0	0	1.0
96	-23.92700005	0	0	0	0	0	1.0
[RightHandThumb1]
93	-24.64799881	-15.72700024	26.82600021	-2.388243675	10.16858101	-8.287041664	1.0
94	-24.64799881	-15.72700024	26.82600021	-2.388240099	10.16858101	-8.28704834	1.0
95	-24.64799881	-15.72700024	26.82600021	-2.388237238	10.16858387	-8.287035942	1.0
96	-24.64799881	-15.72700024	26.82600021	-2.388242483	10.16858673	-8.28703022	1.0
[RightHandThumb2]
93	-32.29800034	-18.64699936	18.64699936	7.070501804	-37.46694565	0.6013858318	1.0
94	-32.29800034	-18.64699936	18.64699936	7.070508957	-37.4669342	0.6013904214	1.0
95	-32.29800034	-18.64699936	18.64699936	7.070507526	-37.46692657	0.6013945341	1.0
96	-32.29800034	-18.64699936	18.64699936	7.070497513	-37.4669342	0.6013993025	1.0
[RightHandThumb3]
93	-26.52600098	-15.31399918	15.31399918	3.291630507	-34.41184235	-26.10049629	1.0
94	-26.52600098	-15.31399918	15.31399918	3.291613579	-34.41184616	-26.10047913	1.0
95	-26.52600098	-15.31399918	15.31399918	3.291622162	-34.4118576	-26.10048676	1.0
96	-26.52600098	-15.31399918	15.31399918	3.291635513	-34.41187286	-26.1004982	1.0
[RightHandThumb4]
93	-19.54599953	-11.28499985	11.28499985	0	0	0	1.0
94	-19.54599953	-11.28499985	11.28499985	0	0	0	1.0
95	-19.54599953	-11.28499985	11.28499985	0	0	0	1.0
96	-19.54599953	-11.28499985	11.28499985	0	0	0	1.0
[LeftUpLeg]
93	82.07800293	-67.51699829	-15.99599934	-30.17780495	12.7689085	13.27108574	1.0
94	82.07800293	-67.51699829	-15.99599934	-20.36450768	6.424618721	11.69402504	1.0
95	82.07800293	-67.51699829	-15.99599934	-16.58734131	5.327794552	7.456652641	1.0
96	82.07800293	-67.51699829	-15.99599934	-17.31624031	9.984680176	4.216280937	1.0
[LeftLeg]
93	0	-443.7049866	2.845999956	34.16622925	3.473086119	2.256321907	1.0
94	0	-443.7049866	2.845999956	26.70954514	6.989459038	4.202408791	1.0
95	0	-443.7049866	2.845999956	28.29615402	8.679771423	5.632682323	1.0
96	0	-443.7049866	2.845999956	33.61854935	7.077991009	5.870785236	1.0
[LeftFoot]
93	0	-444.2789917	-29.8219986	17.49308395	4.554167271	-20.24485016	1.0
94	0	-444.2789917	-29.8219986	6.665207386	6.214849949	-17.72139931	1.0
95	0	-444.2789917	-29.8219986	-9.261256218	8.090090752	-16.34348679	1.0
96	0	-444.2789917	-29.8219986	-17.57545662	8.071438789	-18.96792412	1.0
[LeftToeBase]
93	0	-87.28699493	107.1060028	-8.560804367	-0.1616970003	-0.9436117411	1.0
94	0	-87.28699493	107.1060028	-10.54647064	-0.1617038548	-0.9436077476	1.0
95	0	-87.28699493	107.1060028	-7.522631645	0.01486140676	0.08747260273	1.0
96	0	-87.28699493	107.1060028	-2.087186575	2.175665031e-06	1.680161404e-06	1.0
[RightUpLeg]
93	-82.07800293	-67.51699829	-15.99599934	-28.60573006	-8.141360283	-9.040815353	1.0
94	-82.07800293	-67.51699829	-15.99599934	-26.47920036	-3.677027225	-10.74907494	1.0
95	-82.07800293	-67.51699829	-15.99599934	-30.9398632	-0.6200671196	-15.31489944	1.0
96	-82.07800293	-67.51699829	-15.99599934	-39.22413254	-1.434298992	-19.21333313	1.0
[RightLeg]
93	0	-443.7049866	2.861999989	31.18761826	-7.142395973	-4.855398655	1.0
94	0	-443.7049866	2.861999989	32.25967789	-8.412269592	-6.22125721	1.0
95	0	-443.7049866	2.861999989	42.15135574	-6.852070332	-6.904872417	1.0
96	0	-443.7049866	2.861999989	52.57311249	-3.857935905	-5.399254322	1.0
[RightFoot]
93	0	-444.2770081	-29.83799934	-3.568285465	-5.140642166	12.23349571	1.0
94	0	-444.2770081	-29.83799934	-10.9321909	-7.698420525	9.833402634	1.0
95	0	-444.2770081	-29.83799934	-13.26099968	-7.556583881	11.02310467	1.0
96	0	-444.2770081	-29.83799934	-3.412961483	-3.856180906	12.99288368	1.0
[RightToeBase]
93	0	-87.28699493	107.1060028	-3.417678833	-0.01108372211	-0.2066521496	1.0
94	0	-87.28699493	107.1060028	-3.51431942	-0.02074207738	-0.07827784121	1.0
95	0	-87.28699493	107.1060028	-5.850078106	0.07900532335	0.3939597309	1.0
96	0	-87.28699493	107.1060028	-13.1796875	0.4703080654	2.3446064	1.0
[EndOfFile]
